<?xml version="1.0" encoding="UTF-8"?>
<!-- Generator: visioncortex VTracer 0.6.4 -->
<svg version="1.1" xmlns="http://www.w3.org/2000/svg" width="2048" height="2048">
<path d="M0 0 C1.14 -0 2.29 -0 3.47 -0.01 C6.64 -0.01 9.81 -0.01 12.98 -0 C16.44 -0 19.9 -0.01 23.37 -0.01 C29.46 -0.01 35.55 -0.02 41.64 -0.01 C50.76 -0.01 59.88 -0.02 69.01 -0.02 C84.55 -0.03 100.09 -0.03 115.64 -0.03 C131.39 -0.03 147.15 -0.04 162.91 -0.04 C163.9 -0.04 164.9 -0.04 165.92 -0.04 C169.97 -0.04 174.02 -0.04 178.07 -0.05 C226.05 -0.06 274.02 -0.07 321.99 -0.07 C345.88 -0.08 369.77 -0.08 393.66 -0.08 C470.27 -0.1 546.89 -0.11 623.51 -0.11 C627.17 -0.11 630.84 -0.11 634.5 -0.11 C641.84 -0.11 649.19 -0.11 656.53 -0.11 C665.13 -0.11 673.73 -0.11 682.33 -0.11 C684.79 -0.11 687.25 -0.11 689.71 -0.11 C768.75 -0.12 847.79 -0.13 926.83 -0.15 C983.62 -0.17 1040.42 -0.19 1097.21 -0.19 C1098.96 -0.19 1098.96 -0.19 1100.75 -0.19 C1126.39 -0.19 1152.03 -0.19 1177.68 -0.2 C1186.85 -0.2 1196.03 -0.2 1205.2 -0.2 C1207.48 -0.2 1209.77 -0.2 1212.05 -0.2 C1248.42 -0.2 1284.78 -0.21 1321.15 -0.22 C1357.78 -0.24 1394.42 -0.24 1431.05 -0.23 C1436.12 -0.23 1441.18 -0.23 1446.25 -0.23 C1447.74 -0.23 1447.74 -0.23 1449.26 -0.23 C1464.96 -0.23 1480.67 -0.23 1496.37 -0.25 C1511.83 -0.26 1527.28 -0.26 1542.73 -0.25 C1551.79 -0.24 1560.84 -0.24 1569.89 -0.26 C1575.92 -0.27 1581.94 -0.26 1587.96 -0.25 C1591.37 -0.25 1594.78 -0.25 1598.18 -0.26 C1618.14 -0.31 1637.51 0.97 1656.93 5.82 C1657.96 6.07 1658.99 6.32 1660.05 6.58 C1675.96 10.65 1691.12 16.38 1705.58 24.15 C1707.42 25.12 1709.28 26.06 1711.15 26.99 C1738.12 40.58 1763 62.32 1781.43 86.13 C1782.07 86.96 1782.07 86.96 1782.73 87.8 C1807.65 120.13 1822.65 157.84 1828.43 198.13 C1828.69 199.84 1828.69 199.84 1828.95 201.58 C1829.6 206.91 1829.57 212.22 1829.56 217.59 C1829.56 219.3 1829.56 219.3 1829.56 221.05 C1829.57 224.23 1829.57 227.4 1829.56 230.58 C1829.56 234.05 1829.56 237.52 1829.57 240.98 C1829.57 247.08 1829.57 253.18 1829.57 259.29 C1829.57 268.42 1829.57 277.55 1829.58 286.69 C1829.59 302.25 1829.59 317.82 1829.59 333.38 C1829.59 349.16 1829.59 364.94 1829.6 380.72 C1829.6 381.72 1829.6 382.71 1829.6 383.74 C1829.6 387.8 1829.6 391.85 1829.6 395.91 C1829.62 443.95 1829.63 491.99 1829.63 540.03 C1829.63 563.95 1829.64 587.87 1829.64 611.79 C1829.65 688.51 1829.66 765.23 1829.67 841.96 C1829.67 845.62 1829.67 849.29 1829.67 852.96 C1829.67 860.31 1829.67 867.67 1829.67 875.02 C1829.67 883.63 1829.67 892.24 1829.67 900.86 C1829.67 903.32 1829.67 905.78 1829.67 908.25 C1829.67 987.4 1829.69 1066.55 1829.71 1145.7 C1829.73 1202.57 1829.74 1259.44 1829.75 1316.31 C1829.75 1318.06 1829.75 1318.06 1829.75 1319.85 C1829.75 1345.53 1829.75 1371.21 1829.75 1396.88 C1829.75 1406.07 1829.75 1415.26 1829.75 1424.45 C1829.75 1426.73 1829.75 1429.02 1829.75 1431.3 C1829.75 1467.72 1829.76 1504.14 1829.78 1540.56 C1829.79 1577.24 1829.8 1613.93 1829.79 1650.61 C1829.79 1655.68 1829.79 1660.75 1829.79 1665.83 C1829.79 1666.82 1829.79 1667.81 1829.79 1668.84 C1829.78 1684.57 1829.79 1700.3 1829.8 1716.03 C1829.81 1731.5 1829.82 1746.97 1829.8 1762.45 C1829.8 1771.52 1829.8 1780.58 1829.81 1789.65 C1829.82 1795.68 1829.82 1801.71 1829.81 1807.74 C1829.8 1811.15 1829.8 1814.57 1829.81 1817.98 C1829.87 1837.62 1828.47 1856.45 1823.74 1875.57 C1823.49 1876.6 1823.24 1877.63 1822.97 1878.7 C1818.95 1894.55 1813.28 1909.75 1805.5 1924.14 C1804.37 1926.24 1803.27 1928.36 1802.16 1930.48 C1788.03 1957.18 1767.53 1981.82 1743.43 2000.13 C1742.83 2000.59 1742.23 2001.06 1741.61 2001.54 C1704.6 2030.13 1657.97 2048.35 1610.87 2048.26 C1609.72 2048.26 1608.58 2048.26 1607.4 2048.26 C1604.23 2048.27 1601.07 2048.27 1597.9 2048.26 C1594.44 2048.26 1590.97 2048.27 1587.51 2048.27 C1581.42 2048.27 1575.33 2048.28 1569.25 2048.28 C1560.13 2048.27 1551.01 2048.28 1541.9 2048.28 C1526.36 2048.29 1510.83 2048.3 1495.29 2048.3 C1479.54 2048.3 1463.79 2048.31 1448.05 2048.31 C1447.05 2048.31 1446.06 2048.31 1445.03 2048.32 C1440.98 2048.32 1436.94 2048.32 1432.89 2048.32 C1383.79 2048.34 1334.7 2048.35 1285.61 2048.36 C1269.69 2048.36 1253.77 2048.37 1237.85 2048.37 C1236.72 2048.37 1235.6 2048.37 1234.44 2048.37 C1229.9 2048.37 1225.35 2048.37 1220.81 2048.38 C1143.08 2048.39 1065.34 2048.41 987.61 2048.42 C981.5 2048.42 975.4 2048.42 969.29 2048.42 C967.47 2048.42 967.47 2048.42 965.62 2048.42 C953.35 2048.42 941.08 2048.42 928.8 2048.42 C926.34 2048.42 923.88 2048.42 921.42 2048.42 C842.42 2048.43 763.41 2048.45 684.41 2048.49 C627.64 2048.51 570.87 2048.53 514.11 2048.54 C512.36 2048.54 512.36 2048.54 510.57 2048.54 C484.93 2048.54 459.29 2048.54 433.66 2048.54 C423.34 2048.54 413.02 2048.55 402.71 2048.55 C401.58 2048.55 400.45 2048.55 399.29 2048.55 C362.94 2048.55 326.59 2048.56 290.24 2048.58 C253.62 2048.6 217 2048.61 180.38 2048.6 C175.31 2048.6 170.25 2048.6 165.18 2048.6 C164.19 2048.6 163.19 2048.6 162.17 2048.6 C146.48 2048.59 130.78 2048.6 115.09 2048.62 C99.64 2048.64 84.19 2048.64 68.74 2048.62 C59.69 2048.62 50.65 2048.62 41.6 2048.64 C35.57 2048.65 29.55 2048.65 23.53 2048.63 C20.12 2048.62 16.72 2048.62 13.31 2048.64 C-26.18 2048.79 -63.66 2040.86 -98.57 2022.13 C-99.21 2021.79 -99.85 2021.46 -100.52 2021.11 C-127.42 2007.01 -152.12 1986.28 -170.57 1962.13 C-170.99 1961.59 -171.41 1961.05 -171.84 1960.5 C-179.78 1950.28 -186.39 1939.48 -192.57 1928.13 C-192.94 1927.45 -193.31 1926.76 -193.7 1926.06 C-209.3 1897.15 -218.76 1863.46 -218.7 1830.54 C-218.7 1829.4 -218.7 1828.25 -218.7 1827.07 C-218.71 1823.9 -218.71 1820.72 -218.7 1817.55 C-218.7 1814.08 -218.7 1810.61 -218.71 1807.15 C-218.71 1801.05 -218.71 1794.95 -218.71 1788.84 C-218.71 1779.71 -218.71 1770.58 -218.72 1761.45 C-218.73 1745.88 -218.73 1730.32 -218.73 1714.75 C-218.73 1698.97 -218.73 1683.2 -218.74 1667.42 C-218.74 1666.43 -218.74 1665.43 -218.74 1664.4 C-218.74 1660.35 -218.74 1656.29 -218.74 1652.23 C-218.76 1604.2 -218.77 1556.16 -218.77 1508.12 C-218.77 1484.2 -218.78 1460.29 -218.78 1436.37 C-218.79 1359.65 -218.8 1282.93 -218.81 1206.22 C-218.81 1202.55 -218.81 1198.88 -218.81 1195.22 C-218.81 1187.86 -218.81 1180.51 -218.81 1173.15 C-218.81 1164.54 -218.81 1155.93 -218.81 1147.32 C-218.81 1144.86 -218.81 1142.4 -218.81 1139.93 C-218.81 1060.79 -218.83 981.64 -218.85 902.5 C-218.87 845.63 -218.88 788.77 -218.89 731.9 C-218.89 730.73 -218.89 729.56 -218.89 728.36 C-218.89 702.68 -218.89 677.01 -218.89 651.33 C-218.89 642.14 -218.89 632.96 -218.89 623.77 C-218.89 621.48 -218.89 619.2 -218.89 616.91 C-218.89 580.5 -218.9 544.08 -218.92 507.67 C-218.93 470.99 -218.94 434.3 -218.93 397.62 C-218.93 392.55 -218.93 387.48 -218.93 382.41 C-218.93 381.42 -218.93 380.42 -218.93 379.4 C-218.92 363.67 -218.93 347.94 -218.94 332.21 C-218.95 316.74 -218.95 301.27 -218.94 285.8 C-218.94 276.73 -218.94 267.67 -218.95 258.6 C-218.96 252.57 -218.96 246.54 -218.95 240.51 C-218.94 237.1 -218.94 233.69 -218.95 230.27 C-219.01 210.63 -217.61 191.81 -212.88 172.69 C-212.5 171.14 -212.5 171.14 -212.11 169.56 C-207.88 152.9 -201.74 137.22 -193.57 122.13 C-193.19 121.4 -192.8 120.67 -192.41 119.93 C-177.83 92.36 -157.28 67.26 -132.57 48.13 C-132.02 47.7 -131.46 47.27 -130.89 46.83 C-93.89 18.3 -47.01 -0.1 0 0 Z " fill="#007EBB" transform="translate(218.56972759962082,-0.12765049934387207)"/>
<path d="M0 0 C0.69 -0 1.39 -0.01 2.1 -0.01 C5.78 -0.02 9.47 -0.03 13.15 -0.04 C16.13 -0.04 19.1 -0.06 22.08 -0.08 C47.44 -0.27 72.25 1.3 97.22 6.08 C98.26 6.27 98.26 6.27 99.32 6.47 C128.82 12.04 158.94 20.72 185.91 34.09 C188.3 35.28 190.71 36.42 193.13 37.56 C217.59 49.27 239.8 64.83 259.82 83.09 C261.93 84.99 264.06 86.85 266.22 88.7 C273.43 94.99 280.02 101.87 286.16 109.2 C286.84 110.01 286.84 110.01 287.53 110.84 C310.9 138.76 330.06 170.16 343.16 204.2 C343.69 205.59 343.69 205.59 344.24 207 C366.01 264.09 374.35 323.51 374.28 384.35 C374.28 387.08 374.28 389.81 374.28 392.54 C374.28 398.45 374.28 404.35 374.28 410.26 C374.27 419.05 374.27 427.83 374.27 436.62 C374.27 451.4 374.27 466.18 374.26 480.97 C374.26 495.59 374.25 510.22 374.25 524.85 C374.25 525.76 374.25 526.67 374.25 527.61 C374.25 532.23 374.25 536.86 374.25 541.49 C374.25 574.22 374.24 606.96 374.23 639.69 C374.22 671.48 374.22 703.27 374.21 735.06 C374.21 737.06 374.21 739.07 374.21 741.07 C374.21 757.32 374.21 773.58 374.2 789.84 C374.19 864.96 374.17 940.08 374.16 1015.2 C274.17 1015.2 174.18 1015.2 71.16 1015.2 C71.13 976.88 71.1 938.55 71.08 899.06 C71.05 876.2 71.03 853.33 71 830.47 C70.98 817.05 70.97 803.62 70.95 790.2 C70.95 788.58 70.95 786.96 70.95 785.33 C70.91 759.55 70.9 733.77 70.88 707.98 C70.87 681.44 70.85 654.9 70.81 628.35 C70.8 624.58 70.79 620.82 70.79 617.05 C70.79 616.31 70.79 615.57 70.78 614.81 C70.77 602.97 70.76 591.14 70.76 579.3 C70.77 567.35 70.75 555.39 70.72 543.44 C70.71 536.98 70.7 530.53 70.71 524.08 C70.74 500.33 70.51 476.72 68.37 453.05 C68.29 452.18 68.22 451.3 68.14 450.4 C66.99 437.8 64.83 425.56 62.16 413.2 C61.92 412.1 61.69 411 61.45 409.86 C55.72 382.9 45.79 356.39 29.16 334.2 C28.08 332.77 28.08 332.77 26.99 331.3 C8.26 307.5 -15.27 293.31 -43.84 284.2 C-44.84 283.87 -45.83 283.55 -46.86 283.21 C-49.51 282.4 -52.14 281.78 -54.84 281.2 C-56.1 280.93 -57.35 280.65 -58.65 280.36 C-89.9 274.25 -125.31 277.02 -155.84 285.2 C-156.86 285.47 -156.86 285.47 -157.89 285.74 C-197.1 296.48 -229.13 323.56 -249.48 358.18 C-266.25 387.67 -275.02 420.66 -278.84 454.2 C-278.94 455.01 -279.03 455.82 -279.13 456.65 C-281.73 480.48 -281.15 504.52 -281.16 528.45 C-281.16 534.32 -281.18 540.19 -281.19 546.07 C-281.21 558.05 -281.23 570.04 -281.24 582.03 C-281.25 593.88 -281.27 605.74 -281.29 617.59 C-281.29 618.33 -281.29 619.07 -281.29 619.83 C-281.3 623.59 -281.3 627.35 -281.31 631.1 C-281.35 657.65 -281.39 684.2 -281.42 710.74 C-281.45 736.51 -281.49 762.28 -281.53 788.05 C-281.53 789.68 -281.53 791.3 -281.53 792.93 C-281.55 806.12 -281.57 819.32 -281.6 832.51 C-281.69 893.41 -281.77 954.31 -281.84 1015.2 C-378.2 1015.2 -474.56 1015.2 -573.84 1015.2 C-573.84 690.15 -573.84 365.1 -573.84 30.2 C-477.48 30.2 -381.12 30.2 -281.84 30.2 C-281.51 73.43 -281.18 116.66 -280.84 161.2 C-278.53 157.24 -276.22 153.28 -273.84 149.2 C-271.68 146.04 -269.51 142.95 -267.22 139.89 C-266.62 139.08 -266.02 138.27 -265.4 137.44 C-259.58 129.7 -253.35 122.38 -246.84 115.2 C-246.07 114.34 -246.07 114.34 -245.27 113.46 C-236.98 104.29 -228.55 95.19 -219.13 87.16 C-217.36 85.64 -215.61 84.11 -213.87 82.56 C-195.59 66.44 -175.15 52.88 -153.76 41.25 C-151.91 40.24 -150.08 39.21 -148.25 38.18 C-103.73 13.44 -50.83 0.16 0 0 Z " fill="#FEFEFE" transform="translate(1388.84375,747.796875)"/>
<path d="M0 0 C100.65 0 201.3 0 305 0 C305 325.05 305 650.1 305 985 C204.35 985 103.7 985 0 985 C0 659.95 0 334.9 0 0 Z " fill="#FFFFFF" transform="translate(314,778)"/>
<path d="M0 0 C0.84 -0.01 1.67 -0.02 2.53 -0.03 C36.85 -0.35 68.83 3.85 99.19 21.24 C100.14 21.77 100.14 21.77 101.11 22.32 C113.93 29.56 125.51 38.07 136.19 48.24 C136.75 48.77 137.31 49.29 137.89 49.84 C162.42 73.07 178.87 101.84 188.19 134.24 C188.45 135.13 188.71 136.02 188.98 136.94 C200.94 179.8 193.55 230.62 172.19 269.24 C163.61 284.38 153.18 297.68 141.19 310.24 C139.97 311.54 139.97 311.54 138.73 312.86 C128.58 323.39 116.73 331.79 104.19 339.24 C103.52 339.64 102.85 340.04 102.16 340.46 C79.13 354 50.78 363.19 23.91 363.48 C23.14 363.49 22.37 363.5 21.57 363.51 C4.43 363.68 -12.09 363.51 -28.81 359.24 C-30.09 358.92 -30.09 358.92 -31.4 358.59 C-76.95 346.85 -117.28 316.59 -141.46 276.31 C-165.09 235.89 -175.11 185.57 -163.35 139.61 C-162.84 137.81 -162.33 136.02 -161.81 134.24 C-161.56 133.34 -161.31 132.44 -161.05 131.52 C-154.1 107.26 -142.36 84.36 -125.81 65.24 C-124.8 64.07 -124.8 64.07 -123.77 62.87 C-92.99 27.89 -47.87 0.46 0 0 Z " fill="#FEFEFE" transform="translate(451.80859375,284.76171875)"/>
</svg>
